<?xml version="1.0" standalone="no"?>
<!DOCTYPE svg PUBLIC "-//W3C//DTD SVG 20010904//EN"
 "http://www.w3.org/TR/2001/REC-SVG-20010904/DTD/svg10.dtd">
<svg version="1.0" xmlns="http://www.w3.org/2000/svg"
 width="300.000000pt" height="300.000000pt" viewBox="0 0 300.000000 300.000000"
 preserveAspectRatio="xMidYMid meet">
<metadata>
Created by potrace 1.14, written by Peter Selinger 2001-2017
</metadata>
<g transform="translate(0.000000,300.000000) scale(0.100000,-0.100000)"
fill="#000000" stroke="none">
<path d="M505 1907 l0 -425 25 -29 c14 -15 27 -30 30 -33 5 -5 96 -112 250
-295 46 -55 87 -102 90 -105 3 -3 52 -61 110 -130 57 -69 107 -127 110 -130 3
-3 19 -21 35 -40 l31 -36 327 0 c180 0 327 1 327 3 0 1 -6 8 -13 15 -11 11
-69 83 -104 128 -6 8 -38 47 -70 86 -32 38 -71 87 -88 108 -16 21 -37 46 -45
56 -30 37 -46 56 -80 100 -19 25 -37 47 -40 50 -3 3 -80 97 -171 210 -91 113
-270 336 -399 495 -129 160 -238 295 -242 300 -4 6 -25 30 -46 53 l-38 44 1
-425z"/>
<path d="M2458 2268 c-28 -37 -146 -181 -197 -243 -9 -11 -100 -123 -201 -250
-102 -126 -194 -239 -205 -251 -11 -12 -31 -37 -45 -55 -14 -18 -60 -76 -102
-128 -43 -53 -78 -98 -78 -101 0 -3 73 -6 163 -8 89 -2 235 -5 323 -7 l162 -4
108 137 108 137 1 408 c0 224 0 407 -1 407 -1 0 -17 -19 -36 -42z"/>
</g>
</svg>
